<svg width="1024" height="1024" viewBox="0 0 1024 1024" fill="none" xmlns="http://www.w3.org/2000/svg">
<g clip-path="url(#clip0_1001_102)">
<path d="M512 0L938.667 362.667H725.333L512 149.333L298.667 362.667H85.3333L512 0Z" fill="#EA580C"/>
<path d="M512 1024L85.3333 661.333H298.667L512 874.667L725.333 661.333H938.667L512 1024Z" fill="#EA580C"/>
<path d="M0 512L362.667 85.3333V298.667L149.333 512L362.667 725.333V938.667L0 512Z" fill="#EA580C"/>
<path d="M1024 512L661.333 938.667V725.333L874.667 512L661.333 298.667V85.3333L1024 512Z" fill="#EA580C"/>
<path d="M512 362.667L362.667 512H448L512 448V362.667Z" fill="#EA580C"/>
<path d="M512 661.333L661.333 512H576L512 576V661.333Z" fill="#EA580C"/>
<path d="M661.333 512L512 362.667V448L576 512H661.333Z" fill="#EA580C"/>
<path d="M362.667 512L512 661.333V576L448 512H362.667Z" fill="#EA580C"/>
</g>
<defs>
<clipPath id="clip0_1001_102">
<rect width="1024" height="1024" fill="white"/>
</clipPath>
</defs>
</svg>
